<svg class="icon" viewBox="0 0 1024 1024" xmlns="http://www.w3.org/2000/svg" width="200" height="200"><defs><style>@font-face{font-family:feedback-iconfont;src:url(//at.alicdn.com/t/font_1031158_u69w8yhxdu.woff2?t=1630033759944) format(&quot;woff2&quot;),url(//at.alicdn.com/t/font_1031158_u69w8yhxdu.woff?t=1630033759944) format(&quot;woff&quot;),url(//at.alicdn.com/t/font_1031158_u69w8yhxdu.ttf?t=1630033759944) format(&quot;truetype&quot;)}</style></defs><path d="M197.12 465.92c-61.013 0-110.933-49.92-111.787-110.933 0-61.014 49.494-110.507 110.507-110.507 61.44 0 111.787 49.493 111.787 110.507 0 61.013-49.494 110.933-110.507 110.933zm712.96 374.613H420.693c-3.413 25.174-12.373 48.214-26.026 68.267H910.08c15.787 0 28.587-12.8 28.587-28.587V869.12c0-15.787-12.8-28.587-28.587-28.587z"/><path d="M887.467 115.2H213.333c-28.16 0-51.2 23.04-51.2 51.2v12.8c11.094-2.133 22.187-3.413 33.707-3.413 98.987 0 180.053 80.213 180.053 178.773 0 35.413-10.24 68.693-28.16 96.853 28.16-1.706 44.8-3.84 54.187-5.546l93.013-127.574c20.054-29.013 52.48-46.08 87.894-46.08 20.906 0 40.96 5.974 58.453 17.494l2.133 1.28 9.387 7.68c22.187 17.493 36.693 42.666 39.68 71.253 3.413 27.733-4.267 55.04-20.907 76.8-67.413 92.587-94.72 129.28-106.24 145.067-11.946 27.306-37.973 54.613-70.4 63.146l-1.28.427-71.253 17.067v99.84h277.333c-14.08 0-25.6-11.52-25.6-25.6V729.6c0-14.08 11.52-25.6 25.6-25.6H844.8c14.08 0 25.6 11.52 25.6 25.6v17.067c0 14.08-11.52 25.6-25.6 25.6h42.667c28.16 0 51.2-23.04 51.2-51.2V166.4c0-28.16-23.04-51.2-51.2-51.2z"/><path d="M610.56 352.427l-7.253-5.547c-6.4-4.267-13.654-6.4-20.907-6.4-12.8 0-24.747 6.4-32 17.067l-104.107 143.36c-6.826 13.226-79.786 20.906-216.746 22.613h-46.934c-51.2 0-93.013 41.813-93.013 93.013v199.254c0 51.2 41.813 93.013 93.013 93.013h78.507c51.2 0 93.013-41.813 93.013-93.013v-198.4l123.734-29.44c13.226-3.414 25.173-20.907 26.453-29.44v-.427c1.707-1.707 73.813-100.693 112.213-153.173 13.227-15.787 10.24-39.68-5.973-52.48z"/></svg>