<svg class="icon" viewBox="0 0 1024 1024" xmlns="http://www.w3.org/2000/svg" width="200" height="200"><defs><style>@font-face{font-family:feedback-iconfont;src:url(//at.alicdn.com/t/font_1031158_u69w8yhxdu.woff2?t=1630033759944) format(&quot;woff2&quot;),url(//at.alicdn.com/t/font_1031158_u69w8yhxdu.woff?t=1630033759944) format(&quot;woff&quot;),url(//at.alicdn.com/t/font_1031158_u69w8yhxdu.ttf?t=1630033759944) format(&quot;truetype&quot;)}</style></defs><path d="M512 604.8a28.16 28.16 0 0 1-15.36-4.48L263.68 465.28a30.72 30.72 0 0 1-16-26.88V168.32a32 32 0 0 1 16-26.88L497.28 6.4a30.72 30.72 0 0 1 31.36 0l233.6 135.04a32 32 0 0 1 16 26.88V438.4a30.72 30.72 0 0 1-16 26.88l-233.6 135.04A28.8 28.8 0 0 1 512 604.8zM310.4 420.48L512 537.6l202.88-117.12V186.24L512 69.12 310.4 186.24zM279.04 168.32L513.28 300.8"/><path d="M512 332.16a28.16 28.16 0 0 1-15.36-4.48L263.68 195.84a31.36 31.36 0 0 1 30.72-54.4L528 273.92a30.72 30.72 0 0 1 12.16 42.24 32 32 0 0 1-28.16 16zM740.48 171.52L513.28 300.8"/><path d="M512 332.16a31.36 31.36 0 0 1-15.36-58.24l227.84-128a32 32 0 0 1 42.88 11.52 31.36 31.36 0 0 1-12.16 42.88l-227.2 128a28.8 28.8 0 0 1-16 3.84z"/><path d="M512 595.84a31.36 31.36 0 0 1-30.72-30.72V300.8a31.36 31.36 0 1 1 64 0v264.32A31.36 31.36 0 0 1 512 595.84z"/><path d="M277.12 1008a26.88 26.88 0 0 1-15.36-4.48L27.52 868.48a30.72 30.72 0 0 1-15.36-26.88V571.52a31.36 31.36 0 0 1 15.36-26.88L261.76 409.6a29.44 29.44 0 0 1 30.72 0l234.24 135.04a31.36 31.36 0 0 1 15.36 26.88V841.6a30.72 30.72 0 0 1-15.36 26.88l-234.24 135.04a25.6 25.6 0 0 1-15.36 4.48zM74.24 823.68L277.12 940.8 480 823.68V589.44L277.12 472.32 74.24 589.44zM43.52 571.52L277.12 704"/><path d="M277.12 734.72a33.92 33.92 0 0 1-15.36-3.84L28.16 598.4A30.72 30.72 0 0 1 16 556.16a31.36 31.36 0 0 1 42.88-11.52l233.6 131.84A30.72 30.72 0 0 1 304 719.36a29.44 29.44 0 0 1-26.88 15.36zM504.96 574.08L277.12 704"/><path d="M277.12 734.72a30.08 30.08 0 0 1-26.88-15.36 31.36 31.36 0 0 1 11.52-42.88l227.84-128A31.36 31.36 0 0 1 531.84 560a32 32 0 0 1-11.52 42.88l-227.84 128a32 32 0 0 1-15.36 3.84z"/><path d="M277.12 999.04a31.36 31.36 0 0 1-31.36-31.36V704a31.36 31.36 0 1 1 64 0v263.68a31.36 31.36 0 0 1-32.64 31.36zm469.76 10.24a36.48 36.48 0 0 1-16-3.84L497.28 870.4a31.36 31.36 0 0 1-15.36-26.88V576a32 32 0 0 1 15.36-27.52l234.24-135.04a32.64 32.64 0 0 1 30.72 0l234.24 135.04a32 32 0 0 1 15.36 27.52v270.08a31.36 31.36 0 0 1-15.36 26.88L762.24 1008a32 32 0 0 1-15.36 1.28zM544 824.96l202.88 117.12 202.88-117.12v-233.6L746.88 474.24 544 591.36zM513.28 573.44l233.6 131.84"/><path d="M746.88 736.64a32 32 0 0 1-15.36-3.84L497.28 600.32a31.36 31.36 0 0 1-11.52-42.24A30.72 30.72 0 0 1 528 545.92L762.24 678.4a31.36 31.36 0 0 1-15.36 58.24zM974.72 576L746.88 705.28"/><path d="M746.88 736.64a30.72 30.72 0 0 1-26.88-16 30.08 30.08 0 0 1 11.52-42.24l227.2-128a30.72 30.72 0 0 1 42.88 11.52 31.36 31.36 0 0 1-11.52 42.24l-227.84 128a33.92 33.92 0 0 1-15.36 4.48z"/><path d="M746.88 1000.96a31.36 31.36 0 0 1-31.36-31.36V704a31.36 31.36 0 0 1 64 0v264.32a31.36 31.36 0 0 1-32.64 32.64z"/></svg>