<svg class="icon" viewBox="0 0 1024 1024" xmlns="http://www.w3.org/2000/svg" width="200" height="200"><defs><style>@font-face{font-family:feedback-iconfont;src:url(//at.alicdn.com/t/font_1031158_u69w8yhxdu.woff2?t=1630033759944) format(&quot;woff2&quot;),url(//at.alicdn.com/t/font_1031158_u69w8yhxdu.woff?t=1630033759944) format(&quot;woff&quot;),url(//at.alicdn.com/t/font_1031158_u69w8yhxdu.ttf?t=1630033759944) format(&quot;truetype&quot;)}</style></defs><path d="M828.51 701.285L639.223 512c12.412-27.927 18.618-58.958 18.618-93.09 0-136.534-108.606-248.243-245.139-248.243-43.442 0-80.679 12.412-117.915 31.03l139.636 139.636c9.31 9.31 9.31 24.825 0 34.134l-62.06 65.163c-9.31 9.31-24.825 9.31-34.134 0L201.697 297.89c-18.618 37.237-31.03 77.577-31.03 117.916 0 136.533 108.606 248.242 245.14 248.242 37.235 0 71.369-9.309 105.502-24.824l183.079 186.182c34.133 34.133 89.988 34.133 121.018 0l3.103-3.103c34.133-31.03 34.133-86.885 0-121.018z"/></svg>