<svg class="icon" viewBox="0 0 1024 1024" xmlns="http://www.w3.org/2000/svg" width="200" height="200"><defs><style>@font-face{font-family:feedback-iconfont;src:url(//at.alicdn.com/t/font_1031158_u69w8yhxdu.woff2?t=1630033759944) format(&quot;woff2&quot;),url(//at.alicdn.com/t/font_1031158_u69w8yhxdu.woff?t=1630033759944) format(&quot;woff&quot;),url(//at.alicdn.com/t/font_1031158_u69w8yhxdu.ttf?t=1630033759944) format(&quot;truetype&quot;)}</style></defs><path d="M407.479 73.143a73.143 73.143 0 0 1 73.143 73.143v731.428a73.143 73.143 0 0 1-73.143 73.143H146.286a73.143 73.143 0 0 1-73.143-73.143V146.286a73.143 73.143 0 0 1 73.143-73.143h261.193zm470.235 0a73.143 73.143 0 0 1 73.143 73.143v731.428a73.143 73.143 0 0 1-73.143 73.143H616.521a73.143 73.143 0 0 1-73.143-73.143V146.286a73.143 73.143 0 0 1 73.143-73.143h261.193zM276.92 610.523a33.792 33.792 0 0 0-34.012 33.646c0 18.505 15.214 33.5 34.012 33.5a33.792 33.792 0 0 0 33.938-33.573 33.792 33.792 0 0 0-33.938-33.646zm470.162 0a33.792 33.792 0 0 0-33.938 33.646c0 18.505 15.214 33.5 33.938 33.5a33.792 33.792 0 0 0 34.012-33.573 33.792 33.792 0 0 0-34.012-33.646zM379.173 409.015H174.665a33.646 33.646 0 0 0-6.07 66.56l6.07.585h204.508a33.646 33.646 0 1 0 0-67.145zm470.162 0H644.827a33.646 33.646 0 0 0-5.997 66.56l5.997.585h204.508a33.646 33.646 0 0 0 0-67.145zM379.173 274.65H174.665a33.646 33.646 0 0 0-6.07 66.634l6.07.512h204.508a33.646 33.646 0 0 0 0-67.146zm470.162 0H644.827a33.646 33.646 0 0 0-5.997 66.634l5.997.512h204.508a33.646 33.646 0 0 0 0-67.146z"/></svg>